<svg xmlns="http://www.w3.org/2000/svg" viewBox="0 0 100 43">
  <path fill="currentColor" d="M66,23.1h0v-1.2h-3.1v10.9h3.3v-6c0-1.2.6-2,2.6-2v-3.3c-1.3,0-2.2.4-2.7,1.5Z"/>
  <path fill="currentColor" d="M45.4,21.6c-1.4,0-2.6.5-3.4,1.6h0v-1.2h-3.1v14.6h3.3v-4.6c.9,1,2,1.4,3.3,1.4,3.1,0,5.3-2.6,5.3-5.7s-2.2-5.9-5.3-5.9ZM44.7,30.2c-1.6,0-2.7-1.2-2.7-2.8s1.2-2.8,2.7-2.8,2.8,1.3,2.8,2.8-1.2,2.8-2.7,2.8Z"/>
  <polygon fill="currentColor" points="38.9 21.1 42 21.1 42 13.2 43.5 13.2 43.5 10.2 42 10.2 42 6.5 38.9 6.5 38.9 10.2 37.3 10.2 37.3 13.2 38.9 13.2 38.9 21.1"/>
  <polygon fill="currentColor" points="76 21.6 74.2 21.6 74.2 18.3 71.2 18.3 71.2 21.6 69.5 21.6 69.5 24.8 71.2 24.8 71.2 32.8 74.2 32.8 74.2 24.8 76 24.8 76 21.6"/>
  <path fill="currentColor" d="M49.3,21.4c3.2,0,5.7-2.3,5.7-5.7s-2.5-5.6-5.7-5.6-5.7,2.3-5.7,5.6,2.5,5.6,5.7,5.6ZM49.2,13.1c1.5,0,2.6,1.3,2.6,2.7s-1.1,2.7-2.5,2.7-2.5-1.2-2.5-2.7,1.1-2.7,2.5-2.7Z"/>
  <path fill="currentColor" d="M56.8,21.9c-3.2,0-5.7,2.3-5.7,5.6s2.5,5.6,5.7,5.6,5.7-2.3,5.7-5.7-2.5-5.6-5.7-5.6ZM56.8,30.2c-1.4,0-2.5-1.2-2.5-2.7s1.1-2.7,2.5-2.7,2.6,1.3,2.6,2.7-1.1,2.7-2.5,2.7Z"/>
  <path fill="currentColor" d="M87.4,27.5c0-3.4-2.5-6-5.8-6s-5.7,2.7-5.7,5.9,2.6,5.8,5.8,5.8,4.2-1.3,5.3-3.6h-3.4c-.5.6-1,.9-1.9.9-1.3,0-2.4-.8-2.6-2.1h8.2c0-.3,0-.6,0-.9ZM79.2,26.2c.3-1.2,1.3-1.9,2.5-1.9s2.2.7,2.5,1.9h-5Z"/>
  <path fill="currentColor" d="M23.4,21.6c-3.2,0-5.7,2.7-5.7,5.9s2.6,5.8,5.8,5.8,4.2-1.3,5.3-3.6h-3.4c-.5.6-1,.9-1.9.9-1.3,0-2.4-.8-2.6-2.1h8.2c0-.3,0-.6,0-.9,0-3.4-2.5-6-5.8-6ZM20.9,26.2c.3-1.2,1.3-1.9,2.5-1.9s2.2.7,2.5,1.9h-5Z"/>
  <path fill="currentColor" d="M35.1,26.2c-1.5-.4-2-.7-2-1.3s.4-.7.9-.7.9.2,1,.7h3.2c-.2-2-1.9-3.3-4.2-3.3s-4.2,1.4-4.2,3.6.7,2.4,3.5,3.2c1.6.5,2,.8,2,1.4s-.6.8-1.1.8-1.1-.3-1.2-1h-3.2c.2,2.2,2,3.6,4.4,3.6s4.4-1.4,4.4-3.7-.8-2.6-3.4-3.3Z"/>
  <path fill="currentColor" d="M23.1,21.1h4l-5.8-14.6h-2.9l-5.8,14.6h4l.8-2.1h5.1l.7,2.1ZM18.3,16l1.5-5h0s1.5,5,1.5,5h-3Z"/>
  <path fill="currentColor" d="M30.6,21.4c1.5,0,2.3-.5,2.8-1.5h0v1.2h3.1v-10.9h-3.3v6.1c0,1.3-.6,2.2-1.9,2.2s-1.8-.7-1.8-2.1v-6.1h-3.3v6.8c0,3.1,1.9,4.5,4.2,4.5Z"/>
</svg>
